G04*
G04 #@! TF.GenerationSoftware,Altium Limited,Altium Designer,21.6.4 (81)*
G04*
G04 Layer_Color=16711935*
%FSLAX25Y25*%
%MOIN*%
G70*
G04*
G04 #@! TF.SameCoordinates,570C5102-FFD4-49C7-812D-166F0CB68569*
G04*
G04*
G04 #@! TF.FilePolarity,Negative*
G04*
G01*
G75*
%ADD31C,0.06800*%
%ADD32C,0.07800*%
%ADD33C,0.04343*%
%ADD34C,0.07296*%
%ADD35C,0.06343*%
%ADD36C,0.03300*%
D31*
X319300Y28100D02*
D03*
X329300D02*
D03*
X339300D02*
D03*
X349300D02*
D03*
X369300D02*
D03*
X359300D02*
D03*
X299300Y218100D02*
D03*
X309300D02*
D03*
X319300D02*
D03*
X329300D02*
D03*
X339300D02*
D03*
X349300D02*
D03*
X359300D02*
D03*
X369300D02*
D03*
X299300Y28100D02*
D03*
X289300D02*
D03*
X279300D02*
D03*
X269300D02*
D03*
X259300D02*
D03*
X249300D02*
D03*
X239300D02*
D03*
X229300D02*
D03*
X193300Y218100D02*
D03*
X203300D02*
D03*
X213300D02*
D03*
X223300D02*
D03*
X233300D02*
D03*
X243300D02*
D03*
X253300D02*
D03*
X263300D02*
D03*
X273300D02*
D03*
X283300D02*
D03*
X90500Y243000D02*
D03*
X80500D02*
D03*
X70500D02*
D03*
X60500D02*
D03*
D03*
D32*
X93000Y165000D02*
D03*
X83000D02*
D03*
X113000D02*
D03*
X103000D02*
D03*
X34000Y148500D02*
D03*
X44000D02*
D03*
X14000D02*
D03*
X24000D02*
D03*
D33*
X390256Y56228D02*
D03*
X384744D02*
D03*
D34*
X11500Y237500D02*
D03*
Y227500D02*
D03*
Y217500D02*
D03*
D35*
X285500Y161205D02*
D03*
Y186795D02*
D03*
D36*
X141200Y188700D02*
D03*
X342700Y159600D02*
D03*
X400900Y120000D02*
D03*
X9800Y160500D02*
D03*
X10600Y169500D02*
D03*
X17400Y183500D02*
D03*
X11800Y181300D02*
D03*
X397300Y150100D02*
D03*
X127200Y188500D02*
D03*
X392400Y134000D02*
D03*
X20500Y125500D02*
D03*
X54000Y157000D02*
D03*
X341500Y114500D02*
D03*
X397000Y51000D02*
D03*
X17500Y97000D02*
D03*
X253750Y140750D02*
D03*
X130400Y201600D02*
D03*
X131500Y231000D02*
D03*
X389000Y95500D02*
D03*
X348200Y147000D02*
D03*
X138000Y20000D02*
D03*
X174500Y21000D02*
D03*
X97000Y20500D02*
D03*
X50500Y21500D02*
D03*
X40000Y136000D02*
D03*
X70500Y229500D02*
D03*
X22000Y237500D02*
D03*
M02*
