G04*
G04 #@! TF.GenerationSoftware,Altium Limited,Altium Designer,21.6.4 (81)*
G04*
G04 Layer_Physical_Order=1*
G04 Layer_Color=255*
%FSLAX25Y25*%
%MOIN*%
G70*
G04*
G04 #@! TF.SameCoordinates,570C5102-FFD4-49C7-812D-166F0CB68569*
G04*
G04*
G04 #@! TF.FilePolarity,Positive*
G04*
G01*
G75*
%ADD13C,0.01000*%
%ADD15R,0.06200X0.04750*%
%ADD16R,0.07100X0.04400*%
%ADD17R,0.03150X0.03150*%
%ADD18R,0.04400X0.07100*%
G04:AMPARAMS|DCode=19|XSize=63.39mil|YSize=23.23mil|CornerRadius=2.9mil|HoleSize=0mil|Usage=FLASHONLY|Rotation=0.000|XOffset=0mil|YOffset=0mil|HoleType=Round|Shape=RoundedRectangle|*
%AMROUNDEDRECTD19*
21,1,0.06339,0.01742,0,0,0.0*
21,1,0.05758,0.02323,0,0,0.0*
1,1,0.00581,0.02879,-0.00871*
1,1,0.00581,-0.02879,-0.00871*
1,1,0.00581,-0.02879,0.00871*
1,1,0.00581,0.02879,0.00871*
%
%ADD19ROUNDEDRECTD19*%
%ADD20R,0.05709X0.01181*%
%ADD21R,0.05787X0.01181*%
G04:AMPARAMS|DCode=22|XSize=48.82mil|YSize=23.23mil|CornerRadius=5.81mil|HoleSize=0mil|Usage=FLASHONLY|Rotation=90.000|XOffset=0mil|YOffset=0mil|HoleType=Round|Shape=RoundedRectangle|*
%AMROUNDEDRECTD22*
21,1,0.04882,0.01161,0,0,90.0*
21,1,0.03720,0.02323,0,0,90.0*
1,1,0.01161,0.00581,0.01860*
1,1,0.01161,0.00581,-0.01860*
1,1,0.01161,-0.00581,-0.01860*
1,1,0.01161,-0.00581,0.01860*
%
%ADD22ROUNDEDRECTD22*%
%ADD37C,0.02000*%
%ADD38C,0.06000*%
%ADD39C,0.07000*%
%ADD40C,0.03543*%
%ADD41C,0.06496*%
%ADD42C,0.05543*%
%ADD43C,0.02500*%
G36*
X262199Y115807D02*
X275220D01*
Y115749D01*
X275279D01*
Y115691D01*
X275337D01*
Y115633D01*
X275395D01*
Y115575D01*
X275453D01*
Y115516D01*
X275511D01*
Y115458D01*
X275569D01*
Y115400D01*
X275627D01*
Y115342D01*
X275686D01*
Y115284D01*
X275744D01*
Y115226D01*
X275802D01*
Y115168D01*
X275860D01*
Y115110D01*
X275918D01*
Y115051D01*
X275976D01*
Y114993D01*
X276034D01*
Y114935D01*
X276093D01*
Y114877D01*
X276151D01*
Y114819D01*
X276209D01*
Y114761D01*
X276267D01*
Y114703D01*
X276325D01*
Y114645D01*
X276383D01*
Y114586D01*
X276441D01*
Y114528D01*
X276500D01*
Y114470D01*
X276558D01*
Y114412D01*
X276616D01*
Y114354D01*
X276674D01*
Y114296D01*
X276732D01*
Y114238D01*
X276790D01*
Y114180D01*
X276848D01*
Y114121D01*
X276906D01*
Y114063D01*
X276964D01*
Y114005D01*
X277023D01*
Y113947D01*
X277081D01*
Y113889D01*
X277139D01*
Y113831D01*
X277197D01*
Y113772D01*
X277255D01*
Y113714D01*
X277313D01*
Y113656D01*
X277372D01*
Y113598D01*
X277430D01*
Y113540D01*
X277488D01*
Y113482D01*
X277546D01*
Y113424D01*
X277604D01*
Y113366D01*
X277662D01*
Y113307D01*
X277720D01*
Y113249D01*
X277778D01*
Y113191D01*
X277836D01*
Y113133D01*
X277895D01*
Y113075D01*
X277953D01*
Y113017D01*
X278011D01*
Y112959D01*
X278069D01*
Y112900D01*
X278127D01*
Y112842D01*
X278185D01*
Y112784D01*
X278243D01*
Y112726D01*
X278302D01*
Y112668D01*
X278360D01*
Y112610D01*
X278418D01*
Y112552D01*
X278476D01*
Y112494D01*
X278534D01*
Y112435D01*
X278592D01*
Y112377D01*
X278650D01*
Y112319D01*
X278709D01*
Y112261D01*
X278767D01*
Y112203D01*
X278825D01*
Y112145D01*
X278883D01*
Y112087D01*
X278941D01*
Y112029D01*
X278999D01*
Y111970D01*
X279057D01*
Y111912D01*
X279116D01*
Y111854D01*
X279174D01*
Y111796D01*
X279232D01*
Y111738D01*
X279290D01*
Y111680D01*
X279348D01*
Y111622D01*
X279406D01*
Y111564D01*
X279464D01*
Y111505D01*
X279522D01*
Y111447D01*
X279580D01*
Y111389D01*
X279639D01*
Y111331D01*
X279697D01*
Y111273D01*
X279755D01*
Y111215D01*
X279813D01*
Y111156D01*
X279871D01*
Y111098D01*
X279929D01*
Y111040D01*
X279988D01*
Y110982D01*
X280046D01*
Y110924D01*
X280104D01*
Y110866D01*
X280162D01*
Y110808D01*
X280220D01*
Y110750D01*
X280278D01*
Y110691D01*
X280336D01*
Y110633D01*
X280394D01*
Y110575D01*
X280452D01*
Y110517D01*
X280511D01*
Y110459D01*
X280569D01*
Y110401D01*
X280627D01*
Y105227D01*
X292719D01*
Y96100D01*
X289754D01*
Y80288D01*
X289696D01*
Y80230D01*
X289638D01*
Y80172D01*
X289580D01*
Y80113D01*
X289521D01*
Y80055D01*
X289463D01*
Y79997D01*
X289405D01*
Y79939D01*
X289347D01*
Y79881D01*
X289289D01*
Y79823D01*
X289231D01*
Y79764D01*
X289173D01*
Y79706D01*
X289114D01*
Y79648D01*
X289056D01*
Y79590D01*
X288998D01*
Y79532D01*
X288940D01*
Y79474D01*
X288882D01*
Y79416D01*
X288824D01*
Y79358D01*
X288766D01*
Y79299D01*
X288707D01*
Y79241D01*
X288649D01*
Y79183D01*
X288591D01*
Y79125D01*
X288533D01*
Y79067D01*
X288475D01*
Y79009D01*
X288417D01*
Y78951D01*
X288359D01*
Y78892D01*
X288300D01*
Y78834D01*
X288242D01*
Y78776D01*
X288184D01*
Y78718D01*
X288126D01*
Y78660D01*
X288068D01*
Y78602D01*
X288010D01*
Y78544D01*
X287952D01*
Y78486D01*
X287894D01*
Y78427D01*
X287836D01*
Y78369D01*
X287777D01*
Y78311D01*
X287719D01*
Y78253D01*
X287661D01*
Y78195D01*
X287603D01*
Y78137D01*
X287545D01*
Y78079D01*
X287487D01*
Y78021D01*
X287428D01*
Y77962D01*
X287370D01*
Y77904D01*
X287312D01*
Y77846D01*
X287254D01*
Y77788D01*
X287196D01*
Y77730D01*
X287138D01*
Y77672D01*
X287080D01*
Y77614D01*
X287022D01*
Y77556D01*
X286964D01*
Y77497D01*
X286905D01*
Y77439D01*
X286847D01*
Y77381D01*
X286789D01*
Y77323D01*
X286731D01*
Y77265D01*
X286673D01*
Y77207D01*
X286615D01*
Y77148D01*
X286557D01*
Y77090D01*
X286498D01*
Y77032D01*
X286440D01*
Y76974D01*
X286382D01*
Y76916D01*
X286324D01*
Y76858D01*
X286266D01*
Y76800D01*
X286208D01*
Y76742D01*
X286150D01*
Y76683D01*
X286091D01*
Y76625D01*
X285975D01*
Y76567D01*
X285917D01*
Y76509D01*
X285859D01*
Y76451D01*
X285801D01*
Y76393D01*
X285743D01*
Y76335D01*
X285684D01*
Y76276D01*
X285626D01*
Y76218D01*
X285568D01*
Y76160D01*
X285510D01*
Y76102D01*
X285452D01*
Y76044D01*
X285394D01*
Y75986D01*
X285336D01*
Y75928D01*
X285278D01*
Y75870D01*
X285220D01*
Y75811D01*
X285161D01*
Y75753D01*
X285103D01*
Y75695D01*
X285045D01*
Y75637D01*
X284987D01*
Y75579D01*
X284929D01*
Y75521D01*
X284871D01*
Y75463D01*
X284812D01*
Y75405D01*
X284754D01*
Y75346D01*
X284696D01*
Y75288D01*
X284638D01*
Y75230D01*
X284580D01*
Y75172D01*
X284522D01*
Y75114D01*
X284464D01*
Y75056D01*
X284406D01*
Y74998D01*
X284348D01*
Y74940D01*
X284289D01*
Y74881D01*
X267838D01*
Y74940D01*
X267779D01*
Y74998D01*
X267721D01*
Y75056D01*
X267663D01*
Y75114D01*
X267605D01*
Y75172D01*
X267547D01*
Y75230D01*
X267489D01*
Y75288D01*
X267431D01*
Y75346D01*
X267372D01*
Y75405D01*
X267314D01*
Y75463D01*
X267256D01*
Y75521D01*
X267198D01*
Y75579D01*
X267140D01*
Y75637D01*
X267082D01*
Y75695D01*
X267024D01*
Y75753D01*
X266966D01*
Y75811D01*
X266908D01*
Y75870D01*
X266849D01*
Y75928D01*
X266791D01*
Y75986D01*
X266733D01*
Y76044D01*
X266675D01*
Y76102D01*
X266617D01*
Y76160D01*
X266559D01*
Y76218D01*
X266500D01*
Y76276D01*
X266442D01*
Y76335D01*
X266384D01*
Y76393D01*
X266326D01*
Y76451D01*
X266268D01*
Y76509D01*
X266152D01*
Y76567D01*
X266094D01*
Y76625D01*
X266036D01*
Y76683D01*
X265977D01*
Y76742D01*
X265919D01*
Y76800D01*
X265861D01*
Y76858D01*
X265803D01*
Y76916D01*
X265745D01*
Y76974D01*
X265687D01*
Y77032D01*
X265629D01*
Y77090D01*
X265570D01*
Y77148D01*
X265512D01*
Y77207D01*
X265454D01*
Y77265D01*
X265396D01*
Y77323D01*
X265338D01*
Y77381D01*
X265280D01*
Y77439D01*
X265222D01*
Y77497D01*
X265163D01*
Y77556D01*
X265105D01*
Y77614D01*
X265047D01*
Y77672D01*
X264989D01*
Y77730D01*
X264931D01*
Y77788D01*
X264873D01*
Y77846D01*
X264815D01*
Y77904D01*
X264756D01*
Y77962D01*
X264698D01*
Y78021D01*
X264640D01*
Y78079D01*
X264582D01*
Y78137D01*
X264524D01*
Y78195D01*
X264466D01*
Y78253D01*
X264408D01*
Y78311D01*
X264350D01*
Y78369D01*
X264292D01*
Y78427D01*
X264233D01*
Y78486D01*
X264175D01*
Y78544D01*
X264117D01*
Y78602D01*
X264059D01*
Y78660D01*
X264001D01*
Y78718D01*
X263943D01*
Y78776D01*
X263884D01*
Y78834D01*
X263826D01*
Y78892D01*
X263768D01*
Y78951D01*
X263710D01*
Y79009D01*
X263652D01*
Y79067D01*
X263594D01*
Y79125D01*
X263536D01*
Y79183D01*
X263478D01*
Y79241D01*
X263420D01*
Y79299D01*
X263361D01*
Y79358D01*
X263303D01*
Y79416D01*
X263245D01*
Y79474D01*
X263187D01*
Y79532D01*
X263129D01*
Y79590D01*
X263071D01*
Y79648D01*
X263013D01*
Y79706D01*
X262954D01*
Y79764D01*
X262896D01*
Y79823D01*
X262838D01*
Y79881D01*
X262780D01*
Y79939D01*
X262722D01*
Y79997D01*
X262664D01*
Y80055D01*
X262606D01*
Y80113D01*
X262547D01*
Y80172D01*
X262489D01*
Y80230D01*
X262431D01*
Y80288D01*
X262373D01*
Y85462D01*
X255688D01*
Y85520D01*
X255630D01*
Y85578D01*
X255572D01*
Y85636D01*
X255513D01*
Y85694D01*
X255455D01*
Y85752D01*
X255397D01*
Y85810D01*
X255339D01*
Y85869D01*
X255281D01*
Y85927D01*
X255223D01*
Y85985D01*
X255165D01*
Y86043D01*
X255106D01*
Y86101D01*
X255048D01*
Y86159D01*
X254990D01*
Y86217D01*
X254932D01*
Y86276D01*
X254874D01*
Y86334D01*
X254816D01*
Y86392D01*
X254758D01*
Y86450D01*
X254699D01*
Y86508D01*
X254641D01*
Y86566D01*
X254583D01*
Y86624D01*
X254525D01*
Y86682D01*
X254467D01*
Y86740D01*
X254409D01*
Y86799D01*
X254351D01*
Y86857D01*
X254292D01*
Y86915D01*
X254234D01*
Y86973D01*
X254176D01*
Y87031D01*
X254118D01*
Y87089D01*
X254060D01*
Y87147D01*
X254002D01*
Y87206D01*
X253944D01*
Y87264D01*
X253886D01*
Y87322D01*
X253828D01*
Y87380D01*
X253769D01*
Y87438D01*
X253711D01*
Y87496D01*
X253653D01*
Y87554D01*
X253595D01*
Y87612D01*
X253537D01*
Y87671D01*
X253479D01*
Y87729D01*
X253420D01*
Y87787D01*
X253362D01*
Y87845D01*
X253304D01*
Y87903D01*
X253246D01*
Y87961D01*
X253188D01*
Y88020D01*
X253130D01*
Y88078D01*
X253072D01*
Y88136D01*
X253014D01*
Y88194D01*
X252956D01*
Y88252D01*
X252897D01*
Y88310D01*
X252839D01*
Y88368D01*
X252781D01*
Y88426D01*
X252723D01*
Y88485D01*
X252665D01*
Y88543D01*
X252607D01*
Y88601D01*
X252549D01*
Y88659D01*
X252490D01*
Y88717D01*
X252432D01*
Y88775D01*
X252374D01*
Y88833D01*
X252316D01*
Y88892D01*
X252258D01*
Y88950D01*
X252200D01*
Y89008D01*
X252142D01*
Y89066D01*
X252083D01*
Y89124D01*
X252025D01*
Y89182D01*
X251967D01*
Y89240D01*
X251909D01*
Y89298D01*
X251851D01*
Y89356D01*
X251793D01*
Y89415D01*
X251735D01*
Y89473D01*
X251677D01*
Y89531D01*
X251618D01*
Y89589D01*
X251560D01*
Y89647D01*
X251502D01*
Y89705D01*
X251444D01*
Y89763D01*
X251386D01*
Y89822D01*
X251328D01*
Y89880D01*
X251270D01*
Y89938D01*
X251212D01*
Y89996D01*
X251153D01*
Y90054D01*
X251095D01*
Y90112D01*
X251037D01*
Y90170D01*
X250979D01*
Y90228D01*
X250921D01*
Y90287D01*
X250863D01*
Y90345D01*
X250804D01*
Y90403D01*
X250746D01*
Y90461D01*
X250688D01*
Y90519D01*
X250630D01*
Y90577D01*
X250572D01*
Y90636D01*
X250514D01*
Y90694D01*
X250456D01*
Y90752D01*
X250398D01*
Y90810D01*
X250340D01*
Y90868D01*
X250281D01*
Y110401D01*
X250340D01*
Y110459D01*
X250398D01*
Y110517D01*
X250456D01*
Y110575D01*
X250514D01*
Y110633D01*
X250572D01*
Y110691D01*
X250630D01*
Y110750D01*
X250688D01*
Y110808D01*
X250746D01*
Y110866D01*
X250804D01*
Y110924D01*
X250863D01*
Y110982D01*
X250921D01*
Y111040D01*
X250979D01*
Y111098D01*
X251037D01*
Y111156D01*
X251095D01*
Y111215D01*
X251153D01*
Y111273D01*
X251212D01*
Y111331D01*
X251270D01*
Y111389D01*
X251328D01*
Y111447D01*
X251386D01*
Y111505D01*
X251444D01*
Y111564D01*
X251502D01*
Y111622D01*
X251560D01*
Y111680D01*
X251618D01*
Y111738D01*
X251677D01*
Y111796D01*
X251735D01*
Y111854D01*
X251793D01*
Y111912D01*
X251851D01*
Y111970D01*
X251909D01*
Y112029D01*
X251967D01*
Y112087D01*
X252025D01*
Y112145D01*
X252083D01*
Y112203D01*
X252142D01*
Y112261D01*
X252200D01*
Y112319D01*
X252258D01*
Y112377D01*
X252316D01*
Y112435D01*
X252374D01*
Y112494D01*
X252432D01*
Y112552D01*
X252490D01*
Y112610D01*
X252549D01*
Y112668D01*
X252607D01*
Y112726D01*
X252665D01*
Y112784D01*
X252723D01*
Y112842D01*
X252781D01*
Y112900D01*
X252839D01*
Y112959D01*
X252897D01*
Y113017D01*
X252956D01*
Y113075D01*
X253014D01*
Y113133D01*
X253072D01*
Y113191D01*
X253130D01*
Y113249D01*
X253188D01*
Y113307D01*
X253246D01*
Y113366D01*
X253304D01*
Y113424D01*
X253362D01*
Y113482D01*
X253420D01*
Y113540D01*
X253479D01*
Y113598D01*
X253537D01*
Y113656D01*
X253595D01*
Y113714D01*
X253653D01*
Y113772D01*
X253711D01*
Y113831D01*
X253769D01*
Y113889D01*
X253828D01*
Y113947D01*
X253886D01*
Y114005D01*
X253944D01*
Y114063D01*
X254002D01*
Y114121D01*
X254060D01*
Y114180D01*
X254118D01*
Y114238D01*
X254176D01*
Y114296D01*
X254234D01*
Y114354D01*
X254292D01*
Y114412D01*
X254351D01*
Y114470D01*
X254409D01*
Y114528D01*
X254467D01*
Y114586D01*
X254525D01*
Y114645D01*
X254583D01*
Y114703D01*
X254641D01*
Y114761D01*
X254699D01*
Y114819D01*
X254758D01*
Y114877D01*
X254816D01*
Y114935D01*
X254874D01*
Y114993D01*
X254932D01*
Y115051D01*
X254990D01*
Y115110D01*
X255048D01*
Y115168D01*
X255106D01*
Y115226D01*
X255165D01*
Y115284D01*
X255223D01*
Y115342D01*
X255281D01*
Y115400D01*
X255339D01*
Y115458D01*
X255397D01*
Y115516D01*
X255455D01*
Y115575D01*
X255513D01*
Y115633D01*
X255572D01*
Y115691D01*
X255630D01*
Y115749D01*
X255688D01*
Y115807D01*
X262140D01*
X262199D01*
D02*
G37*
%LPC*%
G36*
X251793Y93019D02*
Y91508D01*
X251851D01*
Y91449D01*
X251909D01*
Y91391D01*
X251967D01*
Y91333D01*
X252025D01*
Y91275D01*
X252083D01*
Y91217D01*
X252142D01*
Y91159D01*
X252200D01*
Y91101D01*
X252258D01*
Y91042D01*
X252316D01*
Y90984D01*
X252374D01*
Y90926D01*
X252432D01*
Y90868D01*
X252490D01*
Y90810D01*
X252549D01*
Y90752D01*
X252607D01*
Y90694D01*
X252665D01*
Y90636D01*
X252723D01*
Y90577D01*
X252781D01*
Y90519D01*
X252839D01*
Y90461D01*
X252897D01*
Y90403D01*
X252956D01*
Y90345D01*
X253014D01*
Y90287D01*
X253072D01*
Y90228D01*
X253130D01*
Y90170D01*
X253188D01*
Y90112D01*
X253246D01*
Y90054D01*
X253304D01*
Y89996D01*
X253362D01*
Y89938D01*
X253420D01*
Y89880D01*
X253479D01*
Y89822D01*
X253537D01*
Y89763D01*
X253595D01*
Y89705D01*
X253653D01*
Y89647D01*
X253711D01*
Y89589D01*
X253769D01*
Y89531D01*
X253828D01*
Y89473D01*
X253886D01*
Y89415D01*
X253944D01*
Y89356D01*
X254002D01*
Y89298D01*
X254060D01*
Y89240D01*
X254118D01*
Y89182D01*
X254176D01*
Y89124D01*
X254234D01*
Y89066D01*
X254292D01*
Y89008D01*
X254351D01*
Y88950D01*
X254409D01*
Y88892D01*
X254467D01*
Y88833D01*
X254525D01*
Y88775D01*
X254583D01*
Y88717D01*
X254641D01*
Y88659D01*
X254699D01*
Y88601D01*
X254758D01*
Y88543D01*
X254816D01*
Y88485D01*
X254874D01*
Y88426D01*
X254932D01*
Y88368D01*
X254990D01*
Y88310D01*
X255048D01*
Y88252D01*
X255106D01*
Y88194D01*
X255165D01*
Y88136D01*
X255223D01*
Y88078D01*
X255281D01*
Y88020D01*
X255339D01*
Y87961D01*
X255397D01*
Y87903D01*
X255455D01*
Y87845D01*
X255513D01*
Y87787D01*
X255572D01*
Y87729D01*
X255630D01*
Y87671D01*
X255688D01*
Y87612D01*
X255746D01*
Y87554D01*
X255804D01*
Y87496D01*
X255862D01*
Y87438D01*
X255920D01*
Y87380D01*
X255978D01*
Y87322D01*
X256036D01*
Y87264D01*
X256095D01*
Y87206D01*
X256153D01*
Y87147D01*
X256211D01*
Y87089D01*
X256269D01*
Y87031D01*
X256327D01*
Y86973D01*
X263884D01*
Y80927D01*
X263943D01*
Y80869D01*
X264001D01*
Y80811D01*
X264059D01*
Y80753D01*
X264117D01*
Y80695D01*
X264175D01*
Y80637D01*
X264233D01*
Y80578D01*
X264292D01*
Y80520D01*
X264350D01*
Y80462D01*
X264408D01*
Y80404D01*
X264466D01*
Y80346D01*
X264524D01*
Y80288D01*
X264582D01*
Y80230D01*
X264640D01*
Y80172D01*
X264698D01*
Y80113D01*
X264756D01*
Y80055D01*
X264815D01*
Y79997D01*
X264873D01*
Y79939D01*
X264931D01*
Y79881D01*
X264989D01*
Y79823D01*
X265047D01*
Y79764D01*
X265105D01*
Y79706D01*
X265163D01*
Y79648D01*
X265222D01*
Y79590D01*
X265280D01*
Y79532D01*
X265338D01*
Y79474D01*
X265396D01*
Y79416D01*
X265454D01*
Y79358D01*
X265512D01*
Y79299D01*
X265570D01*
Y79241D01*
X265629D01*
Y79183D01*
X265687D01*
Y79125D01*
X265745D01*
Y79067D01*
X265803D01*
Y79009D01*
X265861D01*
Y78951D01*
X265919D01*
Y78892D01*
X265977D01*
Y78834D01*
X266036D01*
Y78776D01*
X266094D01*
Y78718D01*
X266152D01*
Y78660D01*
X266210D01*
Y78602D01*
X266268D01*
Y78544D01*
X266326D01*
Y78486D01*
X266384D01*
Y78427D01*
X266442D01*
Y78369D01*
X266500D01*
Y78311D01*
X266559D01*
Y78253D01*
X266617D01*
Y78195D01*
X266675D01*
Y78137D01*
X266733D01*
Y78079D01*
X266791D01*
Y78021D01*
X266849D01*
Y77962D01*
X266908D01*
Y77904D01*
X266966D01*
Y77846D01*
X267024D01*
Y77788D01*
X267082D01*
Y77730D01*
X267140D01*
Y77672D01*
X267198D01*
Y77614D01*
X267256D01*
Y77556D01*
X267314D01*
Y77497D01*
X267372D01*
Y77439D01*
X267431D01*
Y77381D01*
X267489D01*
Y77323D01*
X267547D01*
Y77265D01*
X267663D01*
Y77207D01*
X267721D01*
Y77148D01*
X267779D01*
Y77090D01*
X267838D01*
Y77032D01*
X267896D01*
Y76974D01*
X267954D01*
Y76916D01*
X268012D01*
Y76858D01*
X268070D01*
Y76800D01*
X268128D01*
Y76742D01*
X268186D01*
Y76683D01*
X268245D01*
Y76625D01*
X268303D01*
Y76567D01*
X268361D01*
Y76509D01*
X268419D01*
Y76451D01*
X268477D01*
Y76393D01*
X283650D01*
Y76451D01*
X283708D01*
Y76509D01*
X283766D01*
Y76567D01*
X283824D01*
Y76625D01*
X283882D01*
Y76683D01*
X283941D01*
Y76742D01*
X283999D01*
Y76800D01*
X284057D01*
Y76858D01*
X284115D01*
Y76916D01*
X284173D01*
Y76974D01*
X284231D01*
Y77032D01*
X284289D01*
Y77090D01*
X284348D01*
Y77148D01*
X284406D01*
Y77207D01*
X284464D01*
Y77265D01*
X284522D01*
Y77323D01*
X284580D01*
Y77381D01*
X284696D01*
Y77439D01*
X284754D01*
Y77497D01*
X284812D01*
Y77556D01*
X284871D01*
Y77614D01*
X284929D01*
Y77672D01*
X284987D01*
Y77730D01*
X285045D01*
Y77788D01*
X285103D01*
Y77846D01*
X285161D01*
Y77904D01*
X285220D01*
Y77962D01*
X285278D01*
Y78021D01*
X285336D01*
Y78079D01*
X285394D01*
Y78137D01*
X285452D01*
Y78195D01*
X285510D01*
Y78253D01*
X285568D01*
Y78311D01*
X285626D01*
Y78369D01*
X285684D01*
Y78427D01*
X285743D01*
Y78486D01*
X285801D01*
Y78544D01*
X285859D01*
Y78602D01*
X285917D01*
Y78660D01*
X285975D01*
Y78718D01*
X286033D01*
Y78776D01*
X286091D01*
Y78834D01*
X286150D01*
Y78892D01*
X286208D01*
Y78951D01*
X286266D01*
Y79009D01*
X286324D01*
Y79067D01*
X286382D01*
Y79125D01*
X286440D01*
Y79183D01*
X286498D01*
Y79241D01*
X286557D01*
Y79299D01*
X286615D01*
Y79358D01*
X286673D01*
Y79416D01*
X286731D01*
Y79474D01*
X286789D01*
Y79532D01*
X286847D01*
Y79590D01*
X286905D01*
Y79648D01*
X286964D01*
Y79706D01*
X287022D01*
Y79764D01*
X287080D01*
Y79823D01*
X287138D01*
Y79881D01*
X287196D01*
Y79939D01*
X287254D01*
Y79997D01*
X287312D01*
Y80055D01*
X287370D01*
Y80113D01*
X287428D01*
Y80172D01*
X287487D01*
Y80230D01*
X287545D01*
Y80288D01*
X287603D01*
Y80346D01*
X287661D01*
Y80404D01*
X287719D01*
Y80462D01*
X287777D01*
Y80520D01*
X287836D01*
Y80578D01*
X287894D01*
Y80637D01*
X287952D01*
Y80695D01*
X288010D01*
Y80753D01*
X288068D01*
Y80811D01*
X288126D01*
Y80869D01*
X288184D01*
Y80927D01*
X288242D01*
Y97611D01*
X291207D01*
Y103716D01*
X282080D01*
Y82497D01*
X269988D01*
Y86973D01*
X274581D01*
Y87031D01*
X274639D01*
Y87089D01*
X274697D01*
Y87147D01*
X274756D01*
Y87206D01*
X274814D01*
Y87264D01*
X274872D01*
Y87322D01*
X274930D01*
Y87380D01*
X274988D01*
Y87438D01*
X275046D01*
Y87496D01*
X275104D01*
Y87554D01*
X275162D01*
Y87612D01*
X275220D01*
Y87671D01*
X275279D01*
Y87729D01*
X275337D01*
Y87787D01*
X275395D01*
Y87845D01*
X275453D01*
Y87903D01*
X275511D01*
Y87961D01*
X275569D01*
Y88020D01*
X275627D01*
Y88078D01*
X275686D01*
Y88136D01*
X275744D01*
Y88194D01*
X275802D01*
Y88252D01*
X275860D01*
Y88310D01*
X275918D01*
Y88368D01*
X275976D01*
Y88426D01*
X276034D01*
Y88485D01*
X276093D01*
Y88543D01*
X276151D01*
Y88601D01*
X276209D01*
Y88659D01*
X276267D01*
Y88717D01*
X276325D01*
Y88775D01*
X276383D01*
Y88833D01*
X276441D01*
Y88892D01*
X276500D01*
Y88950D01*
X276558D01*
Y89008D01*
X276616D01*
Y89066D01*
X276674D01*
Y89124D01*
X276732D01*
Y89182D01*
X276790D01*
Y89240D01*
X276848D01*
Y89298D01*
X276906D01*
Y89356D01*
X276964D01*
Y89415D01*
X277023D01*
Y89473D01*
X277081D01*
Y89531D01*
X277139D01*
Y89589D01*
X277197D01*
Y89647D01*
X277255D01*
Y89705D01*
X277313D01*
Y89763D01*
X277372D01*
Y89822D01*
X277430D01*
Y89880D01*
X277488D01*
Y89938D01*
X277546D01*
Y89996D01*
X277604D01*
Y90054D01*
X277662D01*
Y90112D01*
X277720D01*
Y90170D01*
X277778D01*
Y90228D01*
X277836D01*
Y90287D01*
X277895D01*
Y90345D01*
X277953D01*
Y90403D01*
X278011D01*
Y90461D01*
X278069D01*
Y90519D01*
X278127D01*
Y90577D01*
X278185D01*
Y90636D01*
X278243D01*
Y90694D01*
X278302D01*
Y90752D01*
X278360D01*
Y90810D01*
X278418D01*
Y90868D01*
X278476D01*
Y90926D01*
X278534D01*
Y90984D01*
X278592D01*
Y91042D01*
X278650D01*
Y91101D01*
X278709D01*
Y91159D01*
X278767D01*
Y91217D01*
X278825D01*
Y91275D01*
X278883D01*
Y91333D01*
X278941D01*
Y91391D01*
X278999D01*
Y91449D01*
X279057D01*
Y91508D01*
X279116D01*
Y97611D01*
X273011D01*
Y93077D01*
X270047D01*
Y93135D01*
X269988D01*
Y103716D01*
X260920D01*
Y97611D01*
X263884D01*
Y93077D01*
X257897D01*
Y93135D01*
X257839D01*
Y108192D01*
X257897D01*
Y108250D01*
X273011D01*
Y103657D01*
X279116D01*
Y109761D01*
X279057D01*
Y109819D01*
X278999D01*
Y109878D01*
X278941D01*
Y109936D01*
X278883D01*
Y109994D01*
X278825D01*
Y110052D01*
X278767D01*
Y110110D01*
X278709D01*
Y110168D01*
X278650D01*
Y110226D01*
X278592D01*
Y110284D01*
X278534D01*
Y110343D01*
X278476D01*
Y110401D01*
X278418D01*
Y110459D01*
X278360D01*
Y110517D01*
X278302D01*
Y110575D01*
X278243D01*
Y110633D01*
X278185D01*
Y110691D01*
X278127D01*
Y110750D01*
X278069D01*
Y110808D01*
X278011D01*
Y110866D01*
X277953D01*
Y110924D01*
X277895D01*
Y110982D01*
X277836D01*
Y111040D01*
X277778D01*
Y111098D01*
X277720D01*
Y111156D01*
X277662D01*
Y111215D01*
X277604D01*
Y111273D01*
X277546D01*
Y111331D01*
X277488D01*
Y111389D01*
X277430D01*
Y111447D01*
X277372D01*
Y111505D01*
X277313D01*
Y111564D01*
X277255D01*
Y111622D01*
X277197D01*
Y111680D01*
X277139D01*
Y111738D01*
X277081D01*
Y111796D01*
X277023D01*
Y111854D01*
X276964D01*
Y111912D01*
X276906D01*
Y111970D01*
X276848D01*
Y112029D01*
X276790D01*
Y112087D01*
X276732D01*
Y112145D01*
X276674D01*
Y112203D01*
X276616D01*
Y112261D01*
X276558D01*
Y112319D01*
X276500D01*
Y112377D01*
X276441D01*
Y112435D01*
X276383D01*
Y112494D01*
X276325D01*
Y112552D01*
X276267D01*
Y112610D01*
X276209D01*
Y112668D01*
X276151D01*
Y112726D01*
X276093D01*
Y112784D01*
X276034D01*
Y112842D01*
X275976D01*
Y112900D01*
X275918D01*
Y112959D01*
X275860D01*
Y113017D01*
X275802D01*
Y113075D01*
X275744D01*
Y113133D01*
X275686D01*
Y113191D01*
X275627D01*
Y113249D01*
X275569D01*
Y113307D01*
X275511D01*
Y113366D01*
X275453D01*
Y113424D01*
X275395D01*
Y113482D01*
X275337D01*
Y113540D01*
X275279D01*
Y113598D01*
X275220D01*
Y113656D01*
X275162D01*
Y113714D01*
X275104D01*
Y113772D01*
X275046D01*
Y113831D01*
X274988D01*
Y113889D01*
X274930D01*
Y113947D01*
X274872D01*
Y114005D01*
X274814D01*
Y114063D01*
X274756D01*
Y114121D01*
X274697D01*
Y114180D01*
X274639D01*
Y114238D01*
X274581D01*
Y114296D01*
X256327D01*
Y114238D01*
X256269D01*
Y114180D01*
X256211D01*
Y114121D01*
X256153D01*
Y114063D01*
X256095D01*
Y114005D01*
X256036D01*
Y113947D01*
X255978D01*
Y113889D01*
X255920D01*
Y113831D01*
X255862D01*
Y113772D01*
X255804D01*
Y113714D01*
X255746D01*
Y113656D01*
X255688D01*
Y113598D01*
X255630D01*
Y113540D01*
X255572D01*
Y113482D01*
X255513D01*
Y113424D01*
X255455D01*
Y113366D01*
X255397D01*
Y113307D01*
X255339D01*
Y113249D01*
X255281D01*
Y113191D01*
X255223D01*
Y113133D01*
X255165D01*
Y113075D01*
X255106D01*
Y113017D01*
X255048D01*
Y112959D01*
X254990D01*
Y112900D01*
X254932D01*
Y112842D01*
X254874D01*
Y112784D01*
X254816D01*
Y112726D01*
X254758D01*
Y112668D01*
X254699D01*
Y112610D01*
X254641D01*
Y112552D01*
X254583D01*
Y112494D01*
X254525D01*
Y112435D01*
X254467D01*
Y112377D01*
X254409D01*
Y112319D01*
X254351D01*
Y112261D01*
X254292D01*
Y112203D01*
X254234D01*
Y112145D01*
X254176D01*
Y112087D01*
X254118D01*
Y112029D01*
X254002D01*
Y111970D01*
X253944D01*
Y111912D01*
X253886D01*
Y111854D01*
X253828D01*
Y111796D01*
X253769D01*
Y111738D01*
X253711D01*
Y111680D01*
X253653D01*
Y111622D01*
X253595D01*
Y111564D01*
X253537D01*
Y111505D01*
X253479D01*
Y111447D01*
X253420D01*
Y111389D01*
X253362D01*
Y111331D01*
X253304D01*
Y111273D01*
X253246D01*
Y111215D01*
X253188D01*
Y111156D01*
X253130D01*
Y111098D01*
X253072D01*
Y111040D01*
X253014D01*
Y110982D01*
X252956D01*
Y110924D01*
X252897D01*
Y110866D01*
X252839D01*
Y110808D01*
X252781D01*
Y110750D01*
X252723D01*
Y110691D01*
X252665D01*
Y110633D01*
X252607D01*
Y110575D01*
X252549D01*
Y110517D01*
X252490D01*
Y110459D01*
X252432D01*
Y110401D01*
X252374D01*
Y110343D01*
X252316D01*
Y110284D01*
X252258D01*
Y110226D01*
X252200D01*
Y110168D01*
X252142D01*
Y110110D01*
X252083D01*
Y110052D01*
X252025D01*
Y109994D01*
X251967D01*
Y109936D01*
X251909D01*
Y109878D01*
X251851D01*
Y109819D01*
X251793D01*
Y93077D01*
Y93019D01*
D02*
G37*
%LPD*%
D13*
X379605Y28100D02*
Y36900D01*
X365600D02*
X379605D01*
Y28100D02*
X384996D01*
X385000Y28096D01*
X329300Y9500D02*
Y28100D01*
X8700Y9500D02*
X329300D01*
X401500Y7500D02*
X403437Y9437D01*
X320128Y7500D02*
X401500D01*
X318700Y28700D02*
X319300Y28100D01*
X318700Y28700D02*
Y36700D01*
X382800Y32500D02*
X385000Y34700D01*
X318700Y36700D02*
X365600Y36900D01*
X54900Y132900D02*
X137300D01*
X54500Y121100D02*
X55053Y121653D01*
X140200Y188700D02*
X141200D01*
X59771Y129800D02*
X140188D01*
X139400Y189500D02*
X140200Y188700D01*
X140000Y129988D02*
Y188500D01*
X139400Y189500D02*
Y208900D01*
X140000Y188500D02*
X140200Y188700D01*
X403437Y9437D02*
Y117463D01*
X400900Y120000D02*
X403437Y117463D01*
X63892Y212000D02*
X85592Y233700D01*
X114485D02*
X123839Y224346D01*
X85592Y233700D02*
X114485D01*
X63692Y211800D02*
X63892Y212000D01*
X50472Y211800D02*
X63692D01*
X28600Y189928D02*
X50472Y211800D01*
X28600Y175456D02*
Y189928D01*
Y175456D02*
X31056Y173000D01*
X26759Y170941D02*
X32500D01*
X26400Y171300D02*
Y190557D01*
Y171300D02*
X26759Y170941D01*
X26400Y190557D02*
X49643Y213800D01*
X342900Y159400D02*
X348400D01*
X342700Y159600D02*
X342900Y159400D01*
X406300Y5500D02*
Y124000D01*
X393372D02*
X406300D01*
X6000Y5500D02*
X406300D01*
X6700Y8000D02*
X7372D01*
X7872Y7500D01*
X320128D01*
X3700Y7800D02*
X6000Y5500D01*
X3700Y7800D02*
Y163865D01*
X8700Y9500D02*
Y48765D01*
X10375Y168875D02*
X11410D01*
X8500Y122435D02*
X25057Y138992D01*
X8500Y48965D02*
X8700Y48765D01*
X8500Y48965D02*
Y122435D01*
X25057Y138992D02*
X28492D01*
X5700Y9000D02*
X6700Y8000D01*
X5700Y9000D02*
Y156400D01*
X364000Y98500D02*
Y105500D01*
X381564Y123900D02*
X381964Y124300D01*
X364000Y98500D02*
X374000D01*
Y105707D01*
X380500Y112207D01*
Y123314D02*
X381086Y123900D01*
X380500Y112207D02*
Y123314D01*
X381086Y123900D02*
X381564D01*
X3700Y191835D02*
Y220862D01*
X5086Y222248D01*
X3600Y163964D02*
Y191735D01*
Y163964D02*
X3700Y163865D01*
X3600Y191735D02*
X3700Y191835D01*
X5086Y222248D02*
X41248D01*
X5700Y156400D02*
X9800Y160500D01*
X8600Y175957D02*
Y184014D01*
Y175957D02*
X11057Y173500D01*
X12257D01*
X11886Y175500D02*
X13085D01*
X13585Y175000D01*
X11300Y176086D02*
X11886Y175500D01*
X12757Y173000D02*
X17339D01*
X12257Y173500D02*
X12757Y173000D01*
X13585Y175000D02*
X17339D01*
X11300Y176086D02*
Y180800D01*
X10375Y168875D02*
X10600Y169100D01*
Y169500D01*
X11410Y168875D02*
X13435Y170900D01*
X17300D01*
X50600Y22400D02*
X51000Y22000D01*
X17339Y178937D02*
Y183439D01*
X11300Y180800D02*
X11800Y181300D01*
X389978Y148500D02*
X391578Y150100D01*
X397300D01*
X389978Y144728D02*
Y148500D01*
X137300Y132900D02*
Y225178D01*
X137711Y225589D02*
X192689D01*
X137300Y225178D02*
X137711Y225589D01*
X41100Y188500D02*
X127200D01*
X140000Y129988D02*
X140188Y129800D01*
X367050Y156150D02*
X369500D01*
X360700Y157500D02*
X365700D01*
X367050Y156150D01*
X360000Y158200D02*
X360700Y157500D01*
X406500Y128057D02*
Y154722D01*
X388700Y156150D02*
X405072D01*
X406500Y154722D01*
X395275Y139575D02*
X399200Y143500D01*
X390389Y139575D02*
X395275D01*
X377547Y130486D02*
Y133724D01*
X387645Y136830D02*
X390389Y139575D01*
X387645Y132645D02*
Y136830D01*
X378133Y129900D02*
X384900D01*
X388700Y143450D02*
X389978Y144728D01*
X384900Y129900D02*
X387645Y132645D01*
X377547Y130486D02*
X378133Y129900D01*
X394700Y131700D02*
X399200D01*
X392400Y134000D02*
X394700Y131700D01*
X380657Y126300D02*
X393900D01*
X394200Y126000D02*
X404443D01*
X406500Y128057D01*
X381964Y124300D02*
X393072D01*
X377657Y128300D02*
X394729D01*
X376500Y127143D02*
X377657Y128300D01*
X395029Y128000D02*
X403614D01*
X394729Y128300D02*
X395029Y128000D01*
X403614D02*
X404500Y128886D01*
X393072Y124300D02*
X393372Y124000D01*
X378500Y113036D02*
Y124143D01*
X393900Y126300D02*
X394200Y126000D01*
X404500Y128886D02*
Y142900D01*
X378500Y124143D02*
X380657Y126300D01*
X376500Y115000D02*
Y127143D01*
X374000Y112500D02*
X376500Y115000D01*
X374000Y112354D02*
Y112500D01*
X373121Y111475D02*
X374000Y112354D01*
X403900Y143500D02*
X404500Y142900D01*
X399200Y143500D02*
X403900D01*
X253750Y140750D02*
X254000Y140500D01*
X253500Y141000D02*
X253750Y140750D01*
X28492Y125508D02*
X31226D01*
X20508D02*
X28492D01*
X385000Y28096D02*
Y33100D01*
X287000Y187591D02*
X329300D01*
Y218100D01*
X292800Y203200D02*
X309200D01*
X309300Y203700D02*
Y218100D01*
X309200Y203200D02*
X309500Y203500D01*
X292800Y203200D02*
Y250200D01*
X309300Y203700D02*
X309500Y203500D01*
X290500Y252500D02*
X292800Y250200D01*
X299300Y228500D02*
X303500D01*
X299300Y226300D02*
Y228500D01*
Y218100D02*
Y226300D01*
X335486Y210500D02*
X338647D01*
X339300Y211153D01*
Y214700D01*
Y218100D01*
X203200Y218000D02*
X203300Y218100D01*
X203200Y209900D02*
Y218000D01*
X203100Y210000D02*
X203200Y209900D01*
X140500Y210000D02*
X203100D01*
X192800Y218600D02*
X193300Y218100D01*
X192800Y218600D02*
Y225700D01*
X192689Y225589D02*
X192800Y225700D01*
X41100Y176969D02*
Y188500D01*
X41100Y188500D01*
X335000Y59000D02*
Y210014D01*
X335486Y210500D01*
X192800Y59000D02*
X335000D01*
X46400Y122100D02*
Y128400D01*
X46068Y121768D02*
X46400Y122100D01*
X37508Y121768D02*
X46068D01*
X34972Y174969D02*
X40500D01*
X41100Y176969D02*
X57531D01*
X58000Y176500D01*
X35800Y176969D02*
X41100D01*
X34940Y175000D02*
X34972Y174969D01*
X34661Y175000D02*
X34940D01*
X8600Y184014D02*
X12086Y187500D01*
X9800Y190700D02*
X10300Y191200D01*
X47600Y215800D02*
X62036D01*
X12086Y187500D02*
X19300D01*
X47600Y215800D01*
X36000Y179059D02*
X37000D01*
X49643Y213800D02*
X62864D01*
X36000Y179059D02*
Y194500D01*
X72000D01*
X371056Y86555D02*
X379700Y95200D01*
Y104336D02*
X386000Y110636D01*
X379700Y95200D02*
Y104336D01*
X386000Y110636D02*
Y113475D01*
X372000Y104525D02*
Y106535D01*
X378500Y113036D01*
X366000Y106525D02*
X368050D01*
X373000Y111475D02*
X373121D01*
X368050Y106525D02*
X373000Y111475D01*
X41000Y252500D02*
X290500D01*
X41000Y228500D02*
Y252500D01*
X31056Y173000D02*
X33000D01*
X89543Y240479D02*
Y242043D01*
X65000Y218764D02*
Y244864D01*
X62036Y215800D02*
X65000Y218764D01*
X62864Y213800D02*
X89543Y240479D01*
Y242043D02*
X90500Y243000D01*
X62364Y247500D02*
X65000Y244864D01*
X44000Y247500D02*
X62364D01*
X139400Y208900D02*
X140500Y210000D01*
X125845Y224346D02*
X126500Y223691D01*
Y222500D02*
Y223691D01*
X123839Y224346D02*
X125845D01*
X47500Y129500D02*
X50329D01*
X50729Y129100D02*
X59071D01*
X59771Y129800D01*
X46400Y128400D02*
X47500Y129500D01*
X50329D02*
X50729Y129100D01*
X31034Y121768D02*
X34766Y125500D01*
X36008Y125508D02*
X37508D01*
X34766Y125500D02*
X36000D01*
X36008Y125508D01*
X28492Y121768D02*
X31034D01*
X386000Y228500D02*
X387500Y227000D01*
X338500Y91000D02*
X358500D01*
X338500D02*
Y206500D01*
X387500D01*
Y227000D01*
X303500Y228500D02*
X386000Y228500D01*
X20500Y125500D02*
X20508Y125508D01*
X82350Y164350D02*
X83000Y165000D01*
X28492Y138992D02*
X34492D01*
X44000Y148500D01*
X49800Y161200D02*
X54000Y157000D01*
X46000Y161200D02*
X49800D01*
X341500Y114500D02*
X347600D01*
X58000Y164700D02*
X58350Y164350D01*
X33000Y99600D02*
X38500D01*
X386000Y113475D02*
X387875Y115350D01*
X388600D01*
X371056Y86555D02*
X371056D01*
X165900Y60900D02*
X166000Y61000D01*
X358000Y60400D02*
X358100Y60500D01*
X357500Y42500D02*
X358000Y43000D01*
X391772Y56228D02*
X396500Y51500D01*
X390256Y56228D02*
X391772D01*
X379972Y61000D02*
X384744Y56228D01*
X370743Y61000D02*
X379972D01*
X384744Y43256D02*
Y56228D01*
X18000Y97500D02*
Y104100D01*
X17500Y97000D02*
X18000Y97500D01*
X253500Y141000D02*
Y148700D01*
X285500Y161000D02*
X287000Y162500D01*
X253500Y160500D02*
X285500D01*
X41000Y228500D02*
X42000Y227500D01*
X44000Y225000D02*
Y247500D01*
X41248Y222248D02*
X44000Y225000D01*
X130400Y201600D02*
X130500Y201500D01*
X130400Y201600D02*
Y211000D01*
X131308Y230808D02*
X131500Y231000D01*
X122760Y230808D02*
X131308D01*
X118600Y211000D02*
X119020Y211420D01*
Y222500D01*
X11500Y227500D02*
X42000D01*
X18280Y171004D02*
X18339Y171063D01*
X28492Y129248D02*
Y138992D01*
X369400Y102650D02*
X370125D01*
X372000Y104525D01*
X364000Y105500D02*
X365000Y106500D01*
X365975D02*
X366000Y106525D01*
X365000Y106500D02*
X365975D01*
X388600Y95900D02*
Y102650D01*
Y95900D02*
X389000Y95500D01*
X368550Y114500D02*
X369400Y115350D01*
X359400Y114500D02*
X368550D01*
X348200Y147000D02*
X348300Y146900D01*
Y137000D02*
Y146900D01*
X173500Y42950D02*
X174100Y42350D01*
X173500Y59000D02*
X181000D01*
X173500Y42950D02*
Y59000D01*
X30850Y43900D02*
Y61400D01*
X18500D02*
X30850D01*
Y43900D02*
X31400Y43350D01*
X148150Y49100D02*
X154900Y42350D01*
X144500Y49100D02*
X148150D01*
X70700Y49600D02*
X77800Y42500D01*
X66000Y49600D02*
X70700D01*
X111650Y49100D02*
X118900Y41850D01*
X104500Y49100D02*
X111650D01*
X104000Y61400D02*
X104500Y60900D01*
X75900Y29800D02*
X77800D01*
X50600Y43350D02*
X62350D01*
X75900Y29800D01*
X142700Y41850D02*
X154900Y29650D01*
X138100Y41850D02*
X142700D01*
X105550Y42500D02*
X118900Y29150D01*
X97000Y42500D02*
X105550D01*
X138100Y20100D02*
Y29150D01*
X138000Y20000D02*
X138100Y20100D01*
X174100Y21400D02*
Y29650D01*
Y21400D02*
X174500Y21000D01*
X97000Y20500D02*
Y29800D01*
X50600Y22400D02*
Y30650D01*
X35079Y129248D02*
X37508D01*
X38500Y136000D02*
X40000D01*
X37508Y135008D02*
X38500Y136000D01*
X37508Y129248D02*
Y135008D01*
Y121768D02*
X38500Y120776D01*
Y99600D02*
Y120776D01*
X28124Y121400D02*
X28492Y121768D01*
X70500Y229500D02*
Y243000D01*
X11500Y237500D02*
X22000D01*
D15*
X369400Y102650D02*
D03*
X388600D02*
D03*
X369400Y115350D02*
D03*
X388600D02*
D03*
X154900Y29650D02*
D03*
X174100D02*
D03*
X154900Y42350D02*
D03*
X174100D02*
D03*
X118900Y29150D02*
D03*
X138100D02*
D03*
X118900Y41850D02*
D03*
X138100D02*
D03*
X77800Y29800D02*
D03*
X97000D02*
D03*
X77800Y42500D02*
D03*
X97000D02*
D03*
X50600Y43350D02*
D03*
X31400D02*
D03*
X50600Y30650D02*
D03*
X31400D02*
D03*
X369500Y143450D02*
D03*
X388700D02*
D03*
X369500Y156150D02*
D03*
X388700D02*
D03*
D16*
X58000Y176500D02*
D03*
Y164700D02*
D03*
X54900Y132800D02*
D03*
Y121000D02*
D03*
X72000Y194900D02*
D03*
Y183100D02*
D03*
X253500Y160500D02*
D03*
Y148700D02*
D03*
X399200Y131700D02*
D03*
Y143500D02*
D03*
X33000Y99600D02*
D03*
Y111400D02*
D03*
X144500Y60900D02*
D03*
Y49100D02*
D03*
X104500Y60900D02*
D03*
Y49100D02*
D03*
X18000Y51100D02*
D03*
Y62900D02*
D03*
X66000Y49600D02*
D03*
Y61400D02*
D03*
X46000Y173000D02*
D03*
Y161200D02*
D03*
X385000Y33100D02*
D03*
Y44900D02*
D03*
X18000Y104100D02*
D03*
Y115900D02*
D03*
D17*
X377547Y133724D02*
D03*
X383453D02*
D03*
D18*
X359400Y114500D02*
D03*
X347600D02*
D03*
X360200Y159400D02*
D03*
X348400D02*
D03*
X181000Y59000D02*
D03*
X192800D02*
D03*
X370400Y87500D02*
D03*
X358600D02*
D03*
X369900Y60500D02*
D03*
X358100D02*
D03*
X360100Y137000D02*
D03*
X348300D02*
D03*
X130400Y211000D02*
D03*
X118600D02*
D03*
D19*
X28492Y129248D02*
D03*
Y125508D02*
D03*
Y121768D02*
D03*
X37508D02*
D03*
Y125508D02*
D03*
Y129248D02*
D03*
D20*
X17339Y178937D02*
D03*
D21*
Y176969D02*
D03*
Y175000D02*
D03*
Y173031D02*
D03*
Y171063D02*
D03*
X34661D02*
D03*
Y173031D02*
D03*
Y175000D02*
D03*
Y176969D02*
D03*
Y178937D02*
D03*
D22*
X119020Y222500D02*
D03*
X126500D02*
D03*
X122760Y230808D02*
D03*
D37*
X269300Y15500D02*
X269400Y15400D01*
X269300Y15500D02*
Y28100D01*
X43500Y132900D02*
X54900D01*
X54500Y95000D02*
Y121100D01*
X11000Y50000D02*
X19632D01*
X166000Y15400D02*
X269400D01*
X166000D02*
Y61000D01*
X269300Y28100D02*
Y42500D01*
X360399Y147049D02*
X369500Y156150D01*
X360399Y137299D02*
Y147049D01*
Y137299D02*
X369400D01*
Y115350D02*
Y137299D01*
X383453D01*
X360100Y137000D02*
X360399Y137299D01*
X383453Y133724D02*
Y137299D01*
X383000Y121800D02*
X392036D01*
X392336Y121500D01*
X396000D01*
Y77500D02*
Y121500D01*
X383000Y111172D02*
Y121800D01*
X289000Y230500D02*
X290300Y229200D01*
Y206500D02*
Y229200D01*
X146400Y206500D02*
X290300D01*
X43500Y125508D02*
Y132900D01*
X37508Y125508D02*
X43500D01*
X26500Y95000D02*
X54500D01*
X26500Y111400D02*
X32500D01*
X26500Y95000D02*
Y111400D01*
X40000Y173900D02*
X45100D01*
X46000Y173000D01*
X40000Y173900D02*
X40500Y174400D01*
X40000Y165000D02*
Y173900D01*
X46000Y173000D02*
X52922D01*
X58000Y164700D02*
Y172300D01*
X53622D02*
X58000D01*
X52922Y173000D02*
X53622Y172300D01*
X6100Y165000D02*
X40000D01*
X6100D02*
Y190700D01*
X9800D01*
X10300Y216300D02*
X11500Y217500D01*
X10300Y191200D02*
Y216300D01*
X375036Y96000D02*
X377200Y98164D01*
Y105372D02*
X383000Y111172D01*
X377200Y98164D02*
Y105372D01*
X359400Y96000D02*
X375036D01*
X359400D02*
Y114500D01*
X54500Y61400D02*
X66000D01*
X54500D02*
Y95000D01*
X60500Y243000D02*
X61000Y242500D01*
Y218300D02*
Y242500D01*
X12300Y218300D02*
X61000D01*
X11500Y217500D02*
X12300Y218300D01*
X144153Y121653D02*
X146400Y123900D01*
Y206500D01*
X118600Y204100D02*
X131700Y191000D01*
X72000Y183100D02*
X131700D01*
Y191000D01*
X118600Y204100D02*
Y211000D01*
X135000Y148000D02*
Y229000D01*
X58000Y148000D02*
X135000D01*
X22624Y115900D02*
X28000D01*
X18000D02*
X22624D01*
X28000D02*
X32500Y111400D01*
X269300Y42500D02*
X348500Y42500D01*
Y77500D02*
X396000D01*
X348500Y42500D02*
Y77500D01*
X55053Y121653D02*
X144153D01*
X72000Y164350D02*
X82350D01*
X136500Y230500D02*
X289000D01*
X135000Y229000D02*
X136500Y230500D01*
X58000Y148000D02*
Y164700D01*
X58350Y164350D02*
X72000D01*
Y183100D01*
X348500Y42500D02*
X357500D01*
X144500Y60900D02*
X165900D01*
X358000Y43000D02*
Y60400D01*
X22624Y115900D02*
X28124Y121400D01*
X11000D02*
X28124D01*
X11000Y50000D02*
Y121400D01*
X104500Y60900D02*
X144500D01*
X66000Y61400D02*
X104000D01*
D38*
X319300Y28100D02*
D03*
X329300D02*
D03*
X339300D02*
D03*
X349300D02*
D03*
X369300D02*
D03*
X359300D02*
D03*
X299300Y218100D02*
D03*
X309300D02*
D03*
X319300D02*
D03*
X329300D02*
D03*
X339300D02*
D03*
X349300D02*
D03*
X359300D02*
D03*
X369300D02*
D03*
X299300Y28100D02*
D03*
X289300D02*
D03*
X279300D02*
D03*
X269300D02*
D03*
X259300D02*
D03*
X249300D02*
D03*
X239300D02*
D03*
X229300D02*
D03*
X193300Y218100D02*
D03*
X203300D02*
D03*
X213300D02*
D03*
X223300D02*
D03*
X233300D02*
D03*
X243300D02*
D03*
X253300D02*
D03*
X263300D02*
D03*
X273300D02*
D03*
X283300D02*
D03*
X90500Y243000D02*
D03*
X80500D02*
D03*
X70500D02*
D03*
X60500D02*
D03*
D03*
D39*
X93000Y165000D02*
D03*
X83000D02*
D03*
X113000D02*
D03*
X103000D02*
D03*
X34000Y148500D02*
D03*
X44000D02*
D03*
X14000D02*
D03*
X24000D02*
D03*
D40*
X390256Y56228D02*
D03*
X384744D02*
D03*
D41*
X11500Y237500D02*
D03*
Y227500D02*
D03*
Y217500D02*
D03*
D42*
X285500Y161205D02*
D03*
Y186795D02*
D03*
D43*
X141200Y188700D02*
D03*
X342700Y159600D02*
D03*
X400900Y120000D02*
D03*
X9800Y160500D02*
D03*
X10600Y169500D02*
D03*
X17400Y183500D02*
D03*
X11800Y181300D02*
D03*
X397300Y150100D02*
D03*
X127200Y188500D02*
D03*
X392400Y134000D02*
D03*
X20500Y125500D02*
D03*
X54000Y157000D02*
D03*
X341500Y114500D02*
D03*
X397000Y51000D02*
D03*
X17500Y97000D02*
D03*
X253750Y140750D02*
D03*
X130400Y201600D02*
D03*
X131500Y231000D02*
D03*
X389000Y95500D02*
D03*
X348200Y147000D02*
D03*
X138000Y20000D02*
D03*
X174500Y21000D02*
D03*
X97000Y20500D02*
D03*
X50500Y21500D02*
D03*
X40000Y136000D02*
D03*
X70500Y229500D02*
D03*
X22000Y237500D02*
D03*
M02*
