M48
;Layer_Color=9474304
;FILE_FORMAT=2:5
INCH,LZ
;TYPE=PLATED
T1F00S00C0.01300
T2F00S00C0.02165
T3F00S00C0.03000
T4F00S00C0.03543
T5F00S00C0.04000
T6F00S00C0.04331
%
T01
X0397Y0051
X01745Y0021
X0138Y002
X0097Y00205
X00505Y00215
X00175Y0097
X00205Y01255
X00098Y01605
X00106Y01695
X00118Y01813
X00174Y01835
X0054Y0157
X004Y0136
X01272Y01885
X01412Y01887
X01304Y02016
X025375Y014075
X03482Y0147
X03427Y01596
X03415Y01145
X04009Y012
X03924Y0134
X03973Y01501
X0389Y00955
X01315Y0231
X00705Y02295
X0022Y02375
T02
X0384744Y0056228
X0390256
T03
X00605Y0243
X00705
X00805
X00905
T04
X02855Y0161205
Y0186795
T05
X0014Y01485
X0024
X0034
X0044
X0083Y0165
X0093
X0103
X0113
T06
X03393Y00281
X03493
X03593
X03693
X03293
X03193
X02993
X02893
X02793
X02693
X02593
X02493
X02393
X02293
X00115Y02175
X01933Y02181
X02033
X02133
X02233
X02333
X02433
X02533
X02633
X02733
X02833
X02993
X03093
X03193
X03293
X03393
X03493
X03593
X03693
X00115Y02275
Y02375
M30
