G04*
G04 #@! TF.GenerationSoftware,Altium Limited,Altium Designer,21.6.4 (81)*
G04*
G04 Layer_Color=8421504*
%FSLAX25Y25*%
%MOIN*%
G70*
G04*
G04 #@! TF.SameCoordinates,570C5102-FFD4-49C7-812D-166F0CB68569*
G04*
G04*
G04 #@! TF.FilePolarity,Positive*
G04*
G01*
G75*
%ADD15R,0.06200X0.04750*%
%ADD16R,0.07100X0.04400*%
%ADD17R,0.03150X0.03150*%
%ADD18R,0.04400X0.07100*%
G04:AMPARAMS|DCode=19|XSize=63.39mil|YSize=23.23mil|CornerRadius=2.9mil|HoleSize=0mil|Usage=FLASHONLY|Rotation=0.000|XOffset=0mil|YOffset=0mil|HoleType=Round|Shape=RoundedRectangle|*
%AMROUNDEDRECTD19*
21,1,0.06339,0.01742,0,0,0.0*
21,1,0.05758,0.02323,0,0,0.0*
1,1,0.00581,0.02879,-0.00871*
1,1,0.00581,-0.02879,-0.00871*
1,1,0.00581,-0.02879,0.00871*
1,1,0.00581,0.02879,0.00871*
%
%ADD19ROUNDEDRECTD19*%
%ADD20R,0.05709X0.01181*%
%ADD21R,0.05787X0.01181*%
G04:AMPARAMS|DCode=22|XSize=48.82mil|YSize=23.23mil|CornerRadius=5.81mil|HoleSize=0mil|Usage=FLASHONLY|Rotation=90.000|XOffset=0mil|YOffset=0mil|HoleType=Round|Shape=RoundedRectangle|*
%AMROUNDEDRECTD22*
21,1,0.04882,0.01161,0,0,90.0*
21,1,0.03720,0.02323,0,0,90.0*
1,1,0.01161,0.00581,0.01860*
1,1,0.01161,0.00581,-0.01860*
1,1,0.01161,-0.00581,-0.01860*
1,1,0.01161,-0.00581,0.01860*
%
%ADD22ROUNDEDRECTD22*%
D15*
X369400Y102650D02*
D03*
X388600D02*
D03*
X369400Y115350D02*
D03*
X388600D02*
D03*
X154900Y29650D02*
D03*
X174100D02*
D03*
X154900Y42350D02*
D03*
X174100D02*
D03*
X118900Y29150D02*
D03*
X138100D02*
D03*
X118900Y41850D02*
D03*
X138100D02*
D03*
X77800Y29800D02*
D03*
X97000D02*
D03*
X77800Y42500D02*
D03*
X97000D02*
D03*
X50600Y43350D02*
D03*
X31400D02*
D03*
X50600Y30650D02*
D03*
X31400D02*
D03*
X369500Y143450D02*
D03*
X388700D02*
D03*
X369500Y156150D02*
D03*
X388700D02*
D03*
D16*
X58000Y176500D02*
D03*
Y164700D02*
D03*
X54900Y132800D02*
D03*
Y121000D02*
D03*
X72000Y194900D02*
D03*
Y183100D02*
D03*
X253500Y160500D02*
D03*
Y148700D02*
D03*
X399200Y131700D02*
D03*
Y143500D02*
D03*
X33000Y99600D02*
D03*
Y111400D02*
D03*
X144500Y60900D02*
D03*
Y49100D02*
D03*
X104500Y60900D02*
D03*
Y49100D02*
D03*
X18000Y51100D02*
D03*
Y62900D02*
D03*
X66000Y49600D02*
D03*
Y61400D02*
D03*
X46000Y173000D02*
D03*
Y161200D02*
D03*
X385000Y33100D02*
D03*
Y44900D02*
D03*
X18000Y104100D02*
D03*
Y115900D02*
D03*
D17*
X377547Y133724D02*
D03*
X383453D02*
D03*
D18*
X359400Y114500D02*
D03*
X347600D02*
D03*
X360200Y159400D02*
D03*
X348400D02*
D03*
X181000Y59000D02*
D03*
X192800D02*
D03*
X370400Y87500D02*
D03*
X358600D02*
D03*
X369900Y60500D02*
D03*
X358100D02*
D03*
X360100Y137000D02*
D03*
X348300D02*
D03*
X130400Y211000D02*
D03*
X118600D02*
D03*
D19*
X28492Y129248D02*
D03*
Y125508D02*
D03*
Y121768D02*
D03*
X37508D02*
D03*
Y125508D02*
D03*
Y129248D02*
D03*
D20*
X17339Y178937D02*
D03*
D21*
Y176969D02*
D03*
Y175000D02*
D03*
Y173031D02*
D03*
Y171063D02*
D03*
X34661D02*
D03*
Y173031D02*
D03*
Y175000D02*
D03*
Y176969D02*
D03*
Y178937D02*
D03*
D22*
X119020Y222500D02*
D03*
X126500D02*
D03*
X122760Y230808D02*
D03*
M02*
